# xmcd CD database file
#
# Track frame offsets:
#	150
#	12116
#	31129
#	47447
#	63670
#	77219
#	87906
#	116772
#	124669
#	145355
#	157708
#	166114
#	173825
#	197301
#	243016
#	270234
#	289678
#	318289
#
# Disc length: 4433 seconds
#
# Revision: 0
# Processed by: cddbd v1.5.2PL0 Copyright (c) Steve Scherf et al.
# Submitted via: CDex 1.51
#
DISCID=da114f12
DTITLE=BB KING - Live At The Regal (1-10) Live In Cook County Jail (11-18)
DYEAR=1900
DGENRE=Blues
TTITLE0=01 - Every Day I Have The Blues
TTITLE1=02 - Sweet Little Angel
TTITLE2=03 - It's My Own Fault
TTITLE3=04 - How Blue Can You Get
TTITLE4=05 - Please Love Me
TTITLE5=06 - You Upset Me Baby
TTITLE6=07 - Worry, Worry
TTITLE7=08 - Woke Up This Mornin'
TTITLE8=09 - You Done Lost Your Good Thing Now
TTITLE9=10 - Help The Poor
TTITLE10=01 - Introduction
TTITLE11=02 - Every Day I Have The Blues
TTITLE12=03 - How Blue Can You Get
TTITLE13=04 - Worry, Worry, Worry
TTITLE14=05 - Medley- 3 O'Clock Blues , Darlin' You Know I Love You
TTITLE15=06 - Sweet Sixteen
TTITLE16=07 - The Thrill Is Gone
TTITLE17=08 - Please Accept My Love
EXTD=
EXTT0=
EXTT1=
EXTT2=
EXTT3=
EXTT4=
EXTT5=
EXTT6=
EXTT7=
EXTT8=
EXTT9=
EXTT10=
EXTT11=
EXTT12=
EXTT13=
EXTT14=
EXTT15=
EXTT16=
EXTT17=
PLAYORDER=
